<svg xmlns="http://www.w3.org/2000/svg" width="512" height="512" viewBox="0 0 512 512">
  <defs>
    <linearGradient id="bg" x1="0" y1="0" x2="1" y2="1">
      <stop offset="0" stop-color="#3fb985"/>
      <stop offset="1" stop-color="#227a55"/>
    </linearGradient>
  </defs>
  <rect width="512" height="512" rx="112" fill="url(#bg)"/>
  <!-- Apple silhouette -->
  <path fill="#ffffff" d="M256 150c-30-26-78-30-112-6-44 31-52 99-22 158 18 36 44 66 74 84 12 7 28 7 40 0 30-18 56-48 74-84 30-59 22-127-22-158-34-24-82-20-112 6z"/>
  <!-- Leaf -->
  <path fill="#cdeede" d="M256 150c4-34 30-62 70-70-4 40-30 66-70 70z"/>
  <!-- Bite + fork hint as a check -->
  <path fill="none" stroke="#227a55" stroke-width="22" stroke-linecap="round" stroke-linejoin="round" d="M214 286l28 30 60-72"/>
</svg>
